<svg xmlns="http://www.w3.org/2000/svg" viewBox="0 0 158.43 33.54"><defs><style>.cls-1{fill:#1d1d1b;}</style></defs><g id="Livello_2" data-name="Livello 2"><g id="Livello_1-2" data-name="Livello 1"><path class="cls-1" d="M31.51.18c-1.22.13-4.44-.55-4.44,1.34v25a2.31,2.31,0,0,1-2.51,2H8.67a2.31,2.31,0,0,1-2.5-2v-25c.25-2-6.45-1.91-6.15,0V22.8c-.54,1.75,10.2,8.66,11.1,9.8a3.84,3.84,0,0,0,2.39.76c1.78-.26,7.27.67,8.66-.8l10.08-7.93c1.92.3.6-22.16,1-23.11A1.54,1.54,0,0,0,31.51.18Z"/><path class="cls-1" d="M79.05,8.87c-2.45-2-5.8-3.62-5-7.35C75.27-1.3,49.34.78,48.53.18c-2,0-1.74,1.92-1.7,3.23A3.19,3.19,0,0,1,45.46,6c-1,1.07-4.88,3-4.61,4.79v12c.87,3.83,7.08,3.78,6,9.22-1.2,2.82,24.71.75,25.51,1.35,4.29-.77-2.07-3.33,6.72-8.69,1.9-.77.62-12.42,1-13.93A2.37,2.37,0,0,0,79.05,8.87ZM73.87,27.18C75,30,49.53,27.94,48.7,28.53A1.59,1.59,0,0,1,47,27.18V6.36A1.59,1.59,0,0,1,48.7,5C79.41,6.71,73.33-3.44,73.87,27.18Z"/><path class="cls-1" d="M114.07.18c-7.5-1.14-7.16,5.62-14.4,4.7C96,5.2,93.85.22,90.33.18c-1.19.16-4.75-.62-4.73,1.34.06,1.36-.46,3.56,1.71,3.5,1.38.42,10.36-1.18,10.31,1.34V27.18c.09,2.52-9,.93-10.31,1.35-2.17-.08-1.67,2.17-1.71,3.49,0,1.94,3.52,1.22,4.73,1.34,3.55,0,5.6-5,9.34-4.7,5.9-1,6.86,4.17,11.44,4.71,3.24,0,5.21.62,4.67-3.54.12-2.42-9-.9-10.3-1.3a1.6,1.6,0,0,1-1.71-1.35V6.36c.48-3.46,11.59.78,12-2.69C115.72,2.37,116.24.09,114.07.18Z"/><path class="cls-1" d="M156.72,4.88c-6.52,1-6.93-4-11.78-4.7H130.07c-2-.06-1.72,2-1.7,3.36-.24,2.83-5.73-.13-6,2.69V32c0,.76.74,1.34,1.71,1.34,1.48-.24,22.68.74,23.23-.76,2.86-2.44,5.32-4.56,9.39-3.94a1.6,1.6,0,0,0,1.71-1.34V6.23A1.6,1.6,0,0,0,156.72,4.88Zm-4.5,22.3c.93,2.8-22.73.77-23.68,1.35V6.36A1.59,1.59,0,0,1,130.25,5C158.62,5.77,151.3-.88,152.22,27.18Z"/></g></g></svg>